<svg width="142" height="40" viewBox="0 0 142 40" fill="none" xmlns="http://www.w3.org/2000/svg">
<g clip-path="url(#clip0_3385_3884)">
<path fill-rule="evenodd" clip-rule="evenodd" d="M39.8934 6.72006C39.8934 5.22672 41.0667 4.26672 42.7734 4.26672C45.2267 4.26672 45.6534 5.86672 45.6534 6.72006C45.6534 8.21339 44.5867 9.17339 42.7734 9.17339C41.0667 9.17339 39.8934 8.21339 39.8934 6.72006ZM29.5467 29.0134V6.93344C29.5467 5.22678 30.2933 4.58678 32 4.58678H34.6667V29.0134H29.5467ZM0 20.0534C0 14.5067 5.01333 10.6667 12.5867 10.6667C18.9867 10.6667 24.5333 13.8667 24.5333 19.3067C24.5333 20.2667 24.4267 21.1201 24.32 21.7601H5.54667C6.29333 25.2801 9.92 26.3467 13.8667 26.3467C17.8133 26.3467 22.1867 25.1734 24 24.2134V26.0267C24 28.2667 18.7733 29.4401 13.3333 29.4401C6.93333 29.4401 0 27.2001 0 20.0534ZM12.48 13.6534C8.74667 13.6534 6.29333 15.6801 5.54667 18.4534H19.0933C19.0933 16.6401 17.1733 13.6534 12.48 13.6534ZM49.1733 20.0534C49.1733 14.6134 54.1866 10.6667 61.6533 10.6667C69.12 10.6667 74.1333 14.5067 74.1333 20.0534C74.1333 25.6001 69.12 29.4401 61.6533 29.4401C54.1866 29.4401 49.1733 25.6001 49.1733 20.0534ZM54.5066 20.0534C54.5066 23.6801 57.28 26.4534 61.6533 26.4534C66.0266 26.4534 68.8 23.6801 68.8 20.0534C68.8 16.4267 66.0266 13.6534 61.6533 13.6534C57.28 13.6534 54.5066 16.4267 54.5066 20.0534ZM85.9733 10.6667C83.0933 10.6667 80.32 11.0934 77.8667 11.8401V29.0134H80.5333C82.24 29.0134 82.9867 28.2667 82.9867 26.6667V14.7201C84.16 14.4001 85.44 14.2934 86.6133 14.2934C88.7467 14.2934 90.7733 14.7201 92.8 15.2534L93.12 11.3067C90.88 10.8801 88.4267 10.6667 85.9733 10.6667ZM40.1066 13.4401V29.0134H45.2267V11.0934H42.6666C40.96 11.0934 40.1066 11.7334 40.1066 13.4401Z" fill="white"/>
<path fill-rule="evenodd" clip-rule="evenodd" d="M122.56 0C124.587 0 126.613 0.32 128.64 0.853333C137.173 3.2 142.72 9.92 140.907 15.7867C140.16 18.56 137.813 20.6933 134.72 21.8667C135.893 19.7333 136.533 17.28 136.32 14.8267C135.573 6.50667 126.507 0.426667 115.947 1.17333C117.867 0.426667 120.107 0 122.453 0H122.56ZM128.107 12.16C127.787 11.3067 127.147 10.56 126.4 10.1333C128 10.24 129.387 10.6667 130.453 12.0533C132.48 14.6133 131.627 19.7333 128.32 21.6533C122.453 25.0667 117.227 20.16 117.227 16C117.333 16.1067 117.333 16.2133 117.333 16.2133C118.187 18.56 121.28 19.52 124.267 18.4533C127.253 17.28 128.96 14.5067 128.107 12.16ZM117.12 23.8933C117.333 28.2666 120.96 30.72 124.48 30.72C130.773 30.72 133.44 24.96 133.867 23.04C132.48 24.5333 130.773 25.8133 128.64 26.56C123.947 28.2666 119.147 26.7733 117.12 23.8933ZM106.133 16.2133C104.96 23.8933 109.44 31.1467 116.373 33.0667C110.4 33.3867 104.853 30.72 102.293 25.4933C98.6667 18.3467 102.4 9.17333 110.507 5.12C113.173 3.84 115.947 3.2 118.613 3.2H119.787C113.067 3.62667 107.2 8.96 106.133 16.2133ZM110.187 18.3467C110.187 23.1467 113.173 27.3067 117.333 29.0134C114.987 26.3467 114.027 22.1867 115.093 18.0267C116.693 11.52 122.347 7.25336 127.787 8.53336C127.84 8.53336 127.92 8.56002 128 8.58669C128.08 8.61336 128.16 8.64002 128.213 8.64002C126.4 7.25336 124.053 6.29336 121.6 6.29336C115.307 6.29336 110.187 12.0534 110.187 18.3467ZM113.493 35.52C125.973 38.08 137.813 32.1066 139.84 22.08V22.0799C139.84 21.8666 139.84 21.6533 139.947 21.44C140.267 23.4666 140.267 25.4933 139.84 27.6266C138.133 35.0933 130.88 40 122.56 40C120.96 40 119.36 39.8933 117.76 39.4666C113.493 38.4 109.867 36.2666 107.2 33.3866C109.12 34.3466 111.253 35.0933 113.493 35.52Z" fill="#E3004F"/>
</g>
<defs>
<clipPath id="clip0_3385_3884">
<rect width="141.333" height="40" fill="white"/>
</clipPath>
</defs>
</svg>
